PathFileType	4	(x/y/z)	S02_P20_T25
DataRate	CameraRate	NumFrames	NumMarkers	Units	OrigDataRate	OrigDataStartFrame	OrigNumFrames
240	240	5	51	mm	240	317	362
Frame#	Time	Sternum			R.Acromium			L.Acromium			Top.Head			R.ASIS			L.ASIS			R.PSIS			L.PSIS			R.Great.Tro			L.Great.Tro			R.Iliac.Crest			L.Iliac.Crest			V.Sacral			R.Thigh.Upper.Post			R.Thigh.Lower.Ant			R.Thigh.Lower.Post			R.Thigh.Upper.Ant			R.Knee.Lat			R.Knee.Med			R.Shank.Upper.Post			R.Shank.Lower.Ant			R.Shank.Lower.Post			R.Shank.Upper.Ant			R.Ankle.Lat			R.Ankle.Med			R.Heel.Upper			R.Heel.Med			R.Heel.Lat			R.Toe.Lat			R.Toe.Med			R.Toe.Tip			L.Thigh.Upper.Post			L.Thigh.Lower.Ant			L.Thigh.Lower.Post			L.Thigh.Upper.Ant			L.Knee.Lat			L.Knee.Med			L.Shank.Upper.Post			L.Shank.Lower.Ant			L.Shank.Lower.Post			L.Shank.Upper.Ant			L.Ankle.Lat			L.Ankle.Med			L.Heel.Upper			L.Heel.Med			L.Heel.Lat			L.Toe.Lat			L.Toe.Med			L.Toe.Tip			Cervical.Spine			Back			
		X1	Y1	Z1	X2	Y2	Z2	X3	Y3	Z3	X4	Y4	Z4	X5	Y5	Z5	X6	Y6	Z6	X7	Y7	Z7	X8	Y8	Z8	X9	Y9	Z9	X10	Y10	Z10	X11	Y11	Z11	X12	Y12	Z12	X13	Y13	Z13	X14	Y14	Z14	X15	Y15	Z15	X16	Y16	Z16	X17	Y17	Z17	X18	Y18	Z18	X19	Y19	Z19	X20	Y20	Z20	X21	Y21	Z21	X22	Y22	Z22	X23	Y23	Z23	X24	Y24	Z24	X25	Y25	Z25	X26	Y26	Z26	X27	Y27	Z27	X28	Y28	Z28	X29	Y29	Z29	X30	Y30	Z30	X31	Y31	Z31	X32	Y32	Z32	X33	Y33	Z33	X34	Y34	Z34	X35	Y35	Z35	X36	Y36	Z36	X37	Y37	Z37	X38	Y38	Z38	X39	Y39	Z39	X40	Y40	Z40	X41	Y41	Z41	X42	Y42	Z42	X43	Y43	Z43	X44	Y44	Z44	X45	Y45	Z45	X46	Y46	Z46	X47	Y47	Z47	X48	Y48	Z48	X49	Y49	Z49	X50	Y50	Z50	X51	Y51	Z51	

317	1.3167	403.69	1106.6	316.55	281.23	1346.6	442.96	313.58	1341.5	151.58	386.62	1620.1	295.21	356.61	938.09	408.68	371.31	917.92	201.55	150.97	971.5	353.27	145.96	975.64	280.03	303.51	829.5	506.3	236.15	838.14	115.07	257.95	984.75	464.88	251.18	970.94	134.63	123.04	925.05	311	401.81	642.83	491.63	485.37	596.58	455.42	426.04	557.5	471.39	456.76	680.13	472.37	471.2	495.46	456.97	471.36	484.4	315.41	398.88	290.56	436.69	474.94	212.17	424.39	408.17	218.57	427.33	470.57	280.19	440.87	426.84	122.02	416.03	447.23	141.58	333.97	372.75	112.66	353.75	388.01	82.651	324.59	370.63	77.987	386.06	524.75	59.335	445.38	567.93	62.26	344.28	609.34	83.503	406.42	176.82	616.83	154.24	240.86	527.31	161.8	163.88	530.04	179.89	247.08	619.59	137.57	209.94	449.78	175.37	207.27	453.06	314.4	96.043	296.89	184.16	148.26	199.28	203.21	80.667	226.36	203.26	156.91	273.31	184.47	86.091	106.58	221.71	96.496	104.2	301.6	22.484	74.927	253.44	29.404	48.427	287.02	27.602	47.226	225.32	193.78	34.611	199.05	213.38	44.572	309.51	275.16	56.78	263.75	224.78	1404.6	287.62	149.66	1152.4	287.03
318	1.3208	408.84	1105.6	316.75	286.27	1345.7	443.1	319.12	1340.8	151.87	391.84	1619.2	295.59	362.03	937.3	408.72	376.29	916.83	201.5	156.18	970.56	353.67	151.01	974.69	280.45	309.25	828.69	506.37	240.52	837.68	115.2	263.3	983.94	465.02	255.99	969.93	134.83	128.18	924.07	311.47	407.34	641.86	491.22	490.36	595.32	454.22	431.19	556.41	471.08	462.04	678.99	471.09	476.15	494.32	456.2	475.04	482.83	314.45	408.38	287.79	436.27	486.51	211.32	424.11	419.52	216.01	426.92	480.41	279.25	440.55	440.71	119.65	415.72	460.63	139.65	333.65	386.82	108.77	353.41	402.88	79.139	324.32	385.59	74.053	385.73	540.19	59.361	445.07	583.34	63.432	344.02	624.23	85.733	406.2	180.26	616.83	154.43	243.75	526.92	161.88	166.81	530.13	180.1	250.51	619.16	137.66	212.34	449.51	175.42	209.66	452.83	314.47	97.446	297.21	184.3	149.16	199.33	203.26	81.725	226.82	203.32	158.24	273.3	184.52	86.361	106.94	221.8	96.789	104.53	301.75	22.649	75.345	253.5	29.504	48.841	287.11	27.676	47.607	225.4	193.81	34.571	199.07	213.49	44.511	309.51	275.3	56.585	263.73	230.01	1403.7	287.65	154.83	1151.6	286.87
319	1.325	414.01	1104.5	316.97	291.32	1344.9	443.25	324.66	1339.9	152.19	397.07	1618.3	295.98	367.48	936.47	408.76	381.29	915.71	201.44	161.41	969.58	354.08	156.09	973.71	280.88	315	827.78	506.42	244.91	837.2	115.36	268.68	983.09	465.18	260.82	968.89	135.03	133.34	923.06	311.96	412.86	640.81	490.85	495.32	593.96	453.03	436.3	555.24	470.82	467.31	677.78	469.81	481.05	493.09	455.46	478.65	481.15	313.49	417.67	285.11	435.84	497.77	210.53	423.81	430.6	213.57	426.48	490	278.35	440.23	454.23	117.42	415.36	473.66	137.86	333.3	400.55	105.08	353.03	417.38	75.855	323.99	400.21	70.345	385.37	555.19	59.467	444.66	598.26	64.69	343.66	638.64	87.98	405.86	183.8	616.78	154.61	246.76	526.49	161.97	169.86	530.16	180.31	254.05	618.7	137.75	214.87	449.2	175.48	212.16	452.58	314.54	98.955	297.54	184.42	150.12	199.36	203.3	82.854	227.3	203.37	159.67	273.27	184.56	86.646	107.32	221.86	97.091	104.89	301.9	22.822	75.795	253.55	29.605	49.294	287.18	27.752	48.012	225.48	193.85	34.527	199.09	213.59	44.448	309.5	275.44	56.385	263.72	235.25	1402.9	287.7	160.01	1150.7	286.74
320	1.3292	419.2	1103.4	317.2	296.39	1343.9	443.42	330.2	1339.1	152.52	402.29	1617.4	296.39	372.95	935.6	408.81	386.31	914.56	201.36	166.68	968.56	354.51	161.2	972.7	281.32	320.75	826.78	506.44	249.34	836.7	115.53	274.09	982.18	465.37	265.67	967.82	135.24	138.53	922.03	312.45	418.37	639.71	490.53	500.24	592.53	451.87	441.39	554	470.59	472.55	676.49	468.54	485.9	491.78	454.75	482.2	479.38	312.53	426.73	282.52	435.38	508.68	209.79	423.49	441.38	211.24	426.01	499.32	277.47	439.9	467.38	115.33	414.96	486.3	136.2	332.9	413.91	101.61	352.64	431.45	72.791	323.63	414.42	66.859	384.98	569.71	59.64	444.16	612.65	66.009	343.18	652.53	90.222	405.4	187.46	616.68	154.77	249.91	526.04	162.05	173.04	530.15	180.51	257.7	618.2	137.83	217.54	448.86	175.55	214.79	452.31	314.61	100.57	297.87	184.51	151.13	199.39	203.33	84.057	227.78	203.41	161.18	273.23	184.6	86.949	107.72	221.91	97.404	105.27	302.04	23.004	76.282	253.58	29.708	49.789	287.25	27.832	48.447	225.54	193.88	34.479	199.11	213.69	44.386	309.49	275.59	56.18	263.71	240.48	1402	287.78	165.19	1149.8	286.63
321	1.3333	424.41	1102.2	317.44	301.48	1343	443.61	335.72	1338.2	152.87	407.51	1616.5	296.81	378.46	934.69	408.86	391.35	913.38	201.27	171.97	967.51	354.95	166.34	971.68	281.78	326.52	825.69	506.45	253.81	836.16	115.72	279.54	981.24	465.57	270.53	966.73	135.44	143.76	920.97	312.95	423.87	638.54	490.23	505.13	591.02	450.74	446.46	552.69	470.4	477.77	675.13	467.3	490.71	490.41	454.07	485.69	477.53	311.56	435.53	280.02	434.91	519.23	209.08	423.13	451.81	209.02	425.51	508.34	276.59	439.55	480.1	113.38	414.5	498.49	134.65	332.46	426.85	98.332	352.21	445.04	69.934	323.22	428.18	63.591	384.55	583.71	59.864	443.57	626.46	67.36	342.6	665.87	92.433	404.83	191.24	616.53	154.92	253.18	525.55	162.14	176.35	530.09	180.69	261.47	617.66	137.91	220.36	448.49	175.63	217.56	452	314.69	102.3	298.23	184.59	152.21	199.41	203.36	85.336	228.27	203.44	162.78	273.17	184.63	87.272	108.15	221.94	97.731	105.68	302.17	23.197	76.811	253.6	29.813	50.331	287.31	27.916	48.915	225.6	193.92	34.426	199.14	213.78	44.323	309.47	275.74	55.97	263.69	245.71	1401.1	287.89	170.38	1148.9	286.55
